<?xml version="1.0" encoding="utf-8"?>
<!-- Generator: Adobe Illustrator 26.3.1, SVG Export Plug-In . SVG Version: 6.00 Build 0)  -->
<svg version="1.1" id="Layer_1" xmlns="http://www.w3.org/2000/svg" xmlns:xlink="http://www.w3.org/1999/xlink" x="0px" y="0px"
	 viewBox="0 0 735.1 233" style="enable-background:new 0 0 735.1 233;" xml:space="preserve">
<style type="text/css">
	.st0{fill:#F5F5F5;enable-background:new    ;}
</style>
<path class="st0" d="M424.9,147.2c0.2,1.7,0.5,3.5,0.7,5.2s0.5,3.5,0.7,5.3c0.3,2.9,0.6,5.7,0.9,8.6c0.2,1.7,0.3,3.5,0.5,5.2
	c0.2,2.3,0.6,4.5,1.1,6.7c1.3,4.9,2.8,9.7,4.1,14.6c0.9,3.2,1.5,6.6,2.2,9.8c0.1,0.4,0.3,0.8,0.5,1.2c0.7,1.8,1,3.8,0.6,5.8
	c-0.4,2.5-4.6,5.5-7.3,5.3c-2.2-0.2-4.5-0.4-6.7-0.8s-4.4-0.8-6.6-1.3c-4.5-1.1-5.4-2.2-5.7-6.9l-6.1,2.5L365.4,224
	c-3.9,1.6-7.7,3.1-11.5,4.7c-1.1,0.5-2.3,0.5-3.4,0c-19.1-7.8-38.2-15.5-57.4-23.3c-1.8-0.5-3-2.3-2.8-4.1c0-17.1,0-34.1,0-51.2
	c0-25.1,0-50.3,0.1-75.4c0-1.6,0.6-3.1,1.7-4.1c4.1-4.3,8.2-8.7,12.3-13c4.5-4.7,8.9-9.5,13.4-14.2c0.3-0.4,0.4-0.9,0.4-1.4
	c0-4.5,0-9,0-13.5c-0.2-1.5,0.6-3,1.9-3.8c0.5-0.3,1.1-0.4,1.7-0.5c21.6,0,43.1,0,64.7,0c1.9-0.1,3.5,1.4,3.5,3.3c0,0.1,0,0.2,0,0.3
	c0,5.3,0,10.5,0,15.8c0,0.7,0.3,1.4,0.7,1.9c7.3,8.6,14.7,17.1,21.8,25.7c1.3,1.5,2.9,2.9,4.5,4.1c1.6,1.3,3.1,2.8,4.5,4.4
	c1.8,2.1,3.4,4.2,5,6.4c0.8,1.3,1.5,2.6,2.1,3.9c2.5,5.1,5,10.1,7.4,15.2c2,4.4,3.7,8.9,5.6,13.4c0.8,2,1.8,4,2.6,5.6
	c0-2,0.1-4.3,0-6.6s-0.7-4.3-0.9-6.5c-0.3-3.3-0.4-6.7-0.5-10c-0.1-1.5-0.3-2.9-0.2-4.4c0.1-4.1,0.1-8.3,0.5-12.4
	c0.4-3.8,1.2-7.5,1.8-11.2c0.8-4.3,2.3-8.5,4.5-12.3c2.4-4.8,6.1-8.5,11.6-9.7c2.5-0.6,4.6,0.3,6.6,1.5c3.8,2.2,5.9,5.8,8.2,9.4
	c2.7,4.3,4.9,8.8,6.8,13.5c1.8,4.3,3.1,8.8,4.6,13.3c1.1,3.4,2.3,6.8,3.4,10.2h0.3c-0.3-2.1-0.5-4.2-0.9-6.3
	c-0.7-4-1.4-7.9-2.1-11.9c-0.2-1.4-0.4-2.9-0.5-4.3c-0.2-3.4,0.8-6.7,1.5-10c0.5-2.1,1.1-4.3,1.9-6.3c1.5-3.8,4.5-5.9,8.5-6.8
	c2.9-0.7,6-0.2,8.5,1.5c3,1.8,5.8,3.9,8.3,6.3c2.5,2.7,4.7,5.7,6.4,9c3.7,6.5,7.1,13.1,10.4,19.8c1.3,2.5,1.8,5.4,2.9,8
	c5,12.1,8.7,24.7,12.8,37.1c1,3,1.6,6.2,2.4,9.3c0.7,2.6,1.5,5.1,2.1,7.7c0.7,3,1.2,6,1.9,8.9c1.4,5.6,3,11.2,4.4,16.9
	c0.9,3.7,1.5,7.4,2.6,11c1.5,5.2,3.3,10.3,4.9,15.4c0.2,0.8,0.2,1.7,0.1,2.5c0,0.9-0.2,1.8-0.3,2.7c-0.6,4.4-4.3,7.7-8.8,7.8
	c-3.7,0-7.4-0.5-11.1-0.4c-8.2,0.1-15.4-2.9-22.4-6.6c-2.3-1.3-4.4-2.8-6.4-4.5c-1.2-0.9-1.4-2-1.9-3c-2.9-5.8-4.5-12.1-6.6-18.1
	c-3.1-9.2-6-18.6-9.3-27.8c-0.9-2.4-2.6-4.5-4-6.7c-0.1-0.2-0.9-0.2-1.1,0c-1.9,1.1-2.9,3-3.9,4.8c-1.5,2.8-2.4,5.9-2.8,9.1
	c-0.5,2.9-1,5.9-1.2,8.9c-0.1,2,0,4,0.3,5.9c0.2,2.5,0.6,5.1,0.9,7.6s0.6,5,0.9,7.5c0.3,2.3,0.5,4.5,0.8,6.8
	c0.2,1.8,0.3,3.7,0.4,5.5v0.1c0,2.8-1,5.6-2.8,7.8c-1.3,1.5-3.4,2.2-5.4,1.6c-3.9-0.9-7.8-0.6-11.7-0.6c-1.8,0-3.6-0.5-5-1.7
	c-0.9-0.6-1.8-1.1-2.8-1.5c-0.9-0.4-1.7-0.9-2.4-1.5c-1.2-1.1-2.4-2.3-3.5-3.6c-0.5-0.5-0.8-1-0.9-1.7c-0.3-2.4-1.7-4.3-2.6-6.4
	c-3.4-7.2-6.6-14.4-10.1-21.5c-2.6-5.4-5.5-10.6-8.3-15.9c-2.7-4.7-5.7-9.1-9-13.3c-0.2-0.3-0.5-0.5-0.7-0.7L424.9,147.2z
	 M406.5,199.2V77.9c-1.2,0.2-2.4,0.4-3.6,0.5c-4,0.4-8,0.8-12,1.2l-12,1.2l-9.3,1c-4,0.4-8.1,0.9-12.1,1.2c-1.4,0.1-1.6,0.5-1.6,1.7
	c0,44.3,0,88.6,0,132.9v2.1L406.5,199.2z M402.9,70.9l-17-19.8l-22.7,23.7c1.1-0.1,2.5-0.1,4-0.3c2.7-0.3,5.5-0.7,8.2-0.9
	s5.5-0.5,8.2-0.7c3.5-0.4,7-0.8,10.5-1.2C397,71.4,399.8,71.2,402.9,70.9z M298.4,159.2l-0.5,0.3c-0.1,0.9-0.1,1.7,0,2.6
	c0.1,0.7,0.3,1.3,0.8,1.9c16.3,16.3,32.5,32.6,48.8,48.8c0.2,0.2,0.5,0.4,0.9,0.8c0-0.6,0-1.2,0-1.9c0.2-1.3-0.3-2.6-1.4-3.4
	c-16-16-32-32-48-48C298.8,159.9,298.6,159.6,298.4,159.2z M298.4,142.7L298,143c-0.1,0.8-0.1,1.7,0,2.5c0.1,0.7,0.3,1.3,0.8,1.9
	c16.3,16.3,32.5,32.6,48.8,48.8c0.2,0.2,0.5,0.4,0.9,0.8c0-0.7,0-1.3,0-2c0.2-1.3-0.4-2.5-1.4-3.3c-16-16-32-31.9-48-47.9
	C298.8,143.5,298.6,143.1,298.4,142.7L298.4,142.7z M298.4,134.6l-0.4,0.2c-0.1,0.9-0.1,1.8,0,2.7c0,0.6,0.3,1.1,0.6,1.6
	c16.4,16.4,32.7,32.7,49.1,49.1c0.3,0.2,0.5,0.4,0.8,0.6c0-0.5,0-1.1,0-1.6c0.2-1.4-0.4-2.8-1.5-3.7c-16-15.9-32-31.8-47.9-47.8
	C298.8,135.3,298.6,134.9,298.4,134.6L298.4,134.6z M298.4,109.6l-0.4,0.3c0,0.8,0,1.7,0,2.5c-0.1,0.7,0.2,1.4,0.8,1.9
	c16.3,16.3,32.7,32.6,49,48.9c0.2,0.2,0.5,0.4,0.9,0.7c0-0.7,0-1.3,0-2c0.2-1.3-0.4-2.5-1.4-3.3c-16-16-32-31.9-48-47.9
	C298.9,110.3,298.6,110,298.4,109.6L298.4,109.6z M348.5,147.5c0.1-1,0.1-2,0-3c-0.1-0.6-0.3-1.2-0.7-1.6
	c-16.4-16.3-32.7-32.5-49-48.8c-0.2-0.2-0.5-0.4-0.9-0.8c0,0.5,0,1.1,0,1.6c-0.2,1.5,0.4,2.9,1.6,3.8c16,15.9,32,31.8,47.9,47.8
	C347.6,146.7,347.9,147,348.5,147.5L348.5,147.5z M348.5,139.2c0.1-1,0.1-2,0-3c-0.1-0.6-0.3-1.2-0.7-1.6
	c-16.3-16.3-32.6-32.6-48.9-48.9c-0.2-0.2-0.5-0.4-0.9-0.8c0,0.7,0,1.3,0,2c-0.1,1.2,0.4,2.5,1.3,3.2c16.1,16,32.1,32,48.1,48
	C347.6,138.5,348,138.8,348.5,139.2L348.5,139.2z M348.2,180.4l0.4-0.2c0.1-0.9,0.1-1.7,0-2.6c-0.1-0.6-0.3-1.2-0.7-1.6
	c-16.3-16.3-32.6-32.6-48.9-48.9c-0.2-0.2-0.5-0.4-0.8-0.6c-0.5,2.1,0.2,4.3,1.9,5.7c15.9,15.8,31.7,31.6,47.5,47.4
	C347.8,179.8,347.9,180.1,348.2,180.4L348.2,180.4z M298.3,101.5l-0.4,0.2c-0.1,0.9-0.1,1.8,0,2.7c0,0.6,0.3,1.1,0.6,1.6
	c16.4,16.4,32.7,32.7,49.1,49.1c0.3,0.2,0.5,0.4,0.8,0.6c0-0.5,0-1.1,0-1.6c0.2-1.4-0.4-2.8-1.5-3.7c-16-15.9-32-31.8-47.9-47.8
	C298.8,102.2,298.5,101.8,298.3,101.5z M298.3,151l-0.4,0.3c0,0.5,0,1.1,0,1.6c-0.2,1.3,0.4,2.6,1.4,3.4c16,15.9,32,31.9,47.9,47.8
	c0.3,0.4,0.5,0.8,0.8,1.2l0.4-0.4c0.2-2.1,0.1-3.8-1.7-5.5c-15.9-15.7-31.8-31.6-47.6-47.5C298.8,151.8,298.5,151.4,298.3,151
	L298.3,151z M348,172.3l0.4-0.3c0-0.6,0-1.1,0-1.7c0.2-1.3-0.4-2.6-1.4-3.4c-16-16-32-31.9-48-47.9c-0.3-0.4-0.5-0.7-0.6-1.2
	l-0.5,0.4c-0.4,2,0.2,4.1,1.7,5.5c15.9,15.7,31.8,31.5,47.5,47.4C347.5,171.5,347.8,171.9,348,172.3z M348.4,130.9
	c0-0.5,0-1.1,0-1.6c0.2-1.4-0.4-2.8-1.5-3.7c-15.5-15.5-31.1-31-46.6-46.5c-0.7-0.5-1.5-1-2.3-1.4c-0.3,1.7-0.3,2.7,0.8,3.8
	c16.2,16.1,32.3,32.2,48.5,48.4C347.6,130.1,348,130.4,348.4,130.9L348.4,130.9z M297.9,167.5c0,0.7,0,1.3,0,2
	c-0.2,1.3,0.4,2.6,1.4,3.4c14.8,14.8,29.7,29.5,44.5,44.4c1.3,1.3,3,1.6,4.6,2.2c0.3-0.9,0-1.9-0.7-2.4
	c-16.2-16.2-32.4-32.4-48.6-48.6C298.7,168.2,298.4,168,297.9,167.5L297.9,167.5z M304.7,78.6l43.7,43.6c0-0.9,0-1.8,0-2.7
	c0-0.5-0.3-1-0.6-1.4c-12.8-12.8-25.6-25.6-38.4-38.4c-0.3-0.3-0.7-0.5-1.1-0.6C307.1,78.9,306,78.8,304.7,78.6L304.7,78.6z
	 M336.3,214.6l-38.4-38.4c0,0.5,0,0.9,0,1.4c-0.2,1.3,0.4,2.6,1.4,3.4c9.9,9.8,19.8,19.6,29.5,29.5
	C331.1,213,334.1,213.5,336.3,214.6L336.3,214.6z M348.4,114.1c0-0.5,0-1.1,0-1.6c0.2-1.3-0.4-2.7-1.4-3.5
	c-9.4-9.2-18.6-18.6-27.9-27.9c-1.4-1.2-3.2-1.7-5-1.4L348.4,114.1z M352.9,73.6l-7.7-7.7L328,48.7c-0.8-0.8-3.3-1-4-0.4l27.2,27.2
	L352.9,73.6z M323.4,80.6l25.1,25c0-0.5,0-1,0-1.6c0.2-1.2-0.3-2.5-1.3-3.2c-6.1-6-12.2-12-18.1-18.2
	C327.2,80.8,325.3,80.7,323.4,80.6L323.4,80.6z M346,75.3l-24.7-24.7l-1.8,1.9c7.4,7.4,14.7,14.7,22,22c0.2,0.2,0.5,0.4,0.8,0.4
	C343.5,75.1,344.7,75.2,346,75.3z M355.2,71.4l2.1-2c-0.4-0.3-0.8-0.6-1.2-0.9c-6.3-6.3-12.6-12.4-18.8-18.8
	c-1.7-1.8-3.5-1.2-5.4-1.5L355.2,71.4z M322.5,209.1l-24.6-24.6c0,0.5,0,1,0,1.6c-0.2,1.3,0.4,2.5,1.4,3.3c5.1,5,10.3,10,15.2,15.3
	C316.8,207.1,319.8,207.8,322.5,209.1z M315.4,56.9c0.5,0.4,0.9,0.6,1.2,1c5,5,10.1,10,15.1,15.1c1.6,1.6,3.4,1.1,5.2,1.4
	l-19.5-19.5L315.4,56.9z M361.4,65.2c-0.3-0.2-0.6-0.5-1-0.7c-4.8-4.8-9.7-9.5-14.4-14.4c-1.7-1.8-3.5-1.5-5.4-1.6l18.7,18.7
	L361.4,65.2z M348.5,97.7c0-0.7,0-1.3,0-2c0.1-1.1-0.3-2.3-1.2-3c-3.3-3.2-6.6-6.4-9.7-9.7c-1.6-1.7-3.4-1.1-5.3-1.5L348.5,97.7z
	 M311.5,61c3.5,3.6,7.2,7,10.5,10.6c1.7,1.8,3.6,1.6,5.4,1.8l-14.2-14.2L311.5,61z M349.2,48.7L363.5,63l2-1.7
	c-3.7-3.7-7.4-7.1-10.8-10.9C353,48.5,351.1,48.7,349.2,48.7L349.2,48.7z M364.7,31.4c0.4,0.5,0.7,0.8,1,1c2.7,2.7,5.5,5.4,8.2,8.2
	c1.5,1.7,3.3,1.1,5.4,1.3c-3.6-3.5-6.9-6.8-10.2-10.1c-0.3-0.2-0.6-0.4-1-0.4C367,31.4,366,31.4,364.7,31.4z M353.6,41.2
	c-3.4-3.3-6.5-6.4-9.6-9.5c-0.2-0.2-0.4-0.3-0.6-0.3c-1.1,0-2.3,0-3.6,0c3.3,3.3,6.4,6.4,9.5,9.5c0.2,0.2,0.6,0.3,0.9,0.3
	C351.2,41.2,352.2,41.2,353.6,41.2L353.6,41.2z M370.3,41.8l0.1-0.3c-3-3-6-5.8-8.8-8.9c-1.5-1.7-3.1-1-4.8-1
	c3.1,3.3,6.3,6.5,9.5,9.7c0.2,0.2,0.4,0.3,0.7,0.3C368,41.7,369.2,41.7,370.3,41.8L370.3,41.8z M348.1,31.4c0.5,0.5,0.7,0.8,1,1
	c2.4,2.4,5,4.7,7.1,7.2c1.6,1.9,3.5,1.9,5.6,1.7c0-0.1-0.1-0.2-0.2-0.3c-3.1-3.1-6.2-6.1-9.2-9.2c-0.3-0.2-0.6-0.4-0.9-0.4
	C350.5,31.4,349.4,31.4,348.1,31.4z M357.7,49l10,10l1.8-1.8c-2.6-2.6-5.3-5.2-7.9-7.8c-0.2-0.2-0.5-0.3-0.7-0.3
	C359.8,49,358.7,49,357.7,49z M345.1,41c-2.9-2.9-5.7-5.4-8.2-8.2c-1.6-1.8-3.3-1.2-5.4-1.3c3.2,3.2,6.2,6.2,9.2,9.2
	c0.2,0.2,0.5,0.3,0.8,0.4C342.6,41,343.7,41,345.1,41z M336.7,40.9l-0.9-0.9c-2.6-2.6-5.3-5.2-7.9-7.9c-0.5-0.6-1.3-0.9-2-0.6
	c-0.5,1.4,0,3,1.3,3.9c1.1,0.9,2.1,1.9,3,3c1.4,1.7,2.9,2.7,5.2,2.3C335.9,40.7,336.3,40.8,336.7,40.9L336.7,40.9z M298,192.6
	c-0.4,2.2-0.3,4.2,1.8,5.6c0.4,0.3,0.7,0.6,0.9,0.9c2.1,2.7,5.4,3,8.4,4.5L298,192.6z M307.4,65.3c1.9,1.9,3.8,3.5,5.4,5.5
	s3.6,1.5,5.6,1.8l-9.2-9.2L307.4,65.3z M382.7,40.9c0-0.6,0-1.2,0-1.8c0.2-1.3-0.3-2.6-1.4-3.3c-1.2-0.9-2.2-2-3.1-3.1
	c-1.4-1.9-3.3-1-5.1-1.3L382.7,40.9z M341.7,82.4l6.8,6.8v-2.3c0-1.2-2.1-3.9-3.3-4.1S342.7,82.5,341.7,82.4L341.7,82.4z M371.8,55
	l1.9-1.9c-2.2-2.1-3.8-5.2-7.6-3.8L371.8,55z M303.6,69.4c1.3,2.4,3.6,1.9,5.5,2.1l-3.9-3.9L303.6,69.4z M327.9,40.6l-2-2v1.9
	L327.9,40.6z M374.6,49.4l1.2,1.3l1.5-1.3H374.6z"/>
<path class="st0" d="M669.8,107c0.6,2.6,1.3,5.2,1.8,7.8c0.6,2.4,1,4.9,1.3,7.4c0.3,3.3,1,6.5,2,9.6c0.7,2.7,1.2,5.5,1.7,8.2
	c0.5,2.8,1,5.6,1.5,8.4c0.5,2.6,0.9,5.1,1.4,7.7l1.5,8.7c0.6,3.5,1.4,6.9,1.8,10.4c0.1,2.2,0,4.5-0.2,6.7c0,1.6,0,3.1,0,4.7
	c0,1.1-0.1,2.1-0.3,3.2c-0.3,1.5-1.3,2.9-2.7,3.5c-2.4,1.1-5,1.8-7.6,0.8c-1.5-0.5-2.6-1.6-3.1-3.1c-1-3.2-1.8-6.5-2.7-9.8
	c-0.4-1.6-0.9-3.2-1.2-4.9c-0.2-1.5-0.4-3-0.5-4.6c-0.2-4.3-1-8.6-2.3-12.7c-0.3-1-0.4-2-0.4-3c-0.2-2.1-1.3-3.8-2.2-5.6
	c-1.7-3.5-2.8-7.3-3-11.3c-0.2-2.2-0.7-4.4-1-6.6c-0.2-1.8-0.5-3.6-0.6-5.4c-0.3-3.3-0.9-6.5-1.7-9.7c-0.5-2.1-0.8-4.3-1.2-6.5
	c-0.4-1.9-0.9-3.9-1.3-5.8c-0.7-3.6-1.3-7.2-2.1-10.8c-0.6-3-1.5-5.9-2.1-8.9c-0.8-3.7-1.5-7.5-2.4-11.2c-0.7-2.7-1.5-5.2-2.4-7.8
	c-1.6-5-2.5-10.1-3.6-15.1c-0.5-2.2-1.4-4.4-2-6.6c-0.8-3.5-1.5-6.9-2.3-10.4c-0.4-1.7-0.8-3.4-1.3-5.1c-0.7-2.6-1.4-5.2-2.1-7.8
	c-0.3-1.2-0.7-2.5-1-3.7c-1-2.7,0.4-5.6,3.1-6.6c0.4-0.1,0.8-0.2,1.3-0.3c1.9-0.2,3.8-0.4,5.7-0.4c0.6,0,1.3,0.1,1.9,0.3
	c1.2,0.5,2.6,0.7,4,0.5c5.1-0.2,7.7,2.4,7.8,7.5c0.2,2.5,0.6,5,1.1,7.5c0.7,3.9,1.5,7.8,2.1,11.8c0.4,2.7,0.7,5.5,1.3,8.3
	c0.1-0.9,0.3-1.8,0.4-2.7c0.2-1.9,0.5-3.7,0.7-5.6c0.4-3.4,1.3-6.7,2.5-9.9s2.2-6.5,3.3-9.8c1.1-3.2,3.7-5.6,7-6.4
	c2.3-0.7,4.6-1.4,6.9-1.9c1.8-0.4,3.6-0.6,5.4-0.4c2.8,0.4,4.2,2.7,4.4,5.6c0.4,4.9-1.5,9.3-2.3,14c-0.4,2.3-0.8,4.6-1.2,6.8
	c-0.3,2-0.7,4-1,6c-0.4,2.9-0.8,5.8-1.2,8.6c-0.6,4-1,7.9-1.7,11.9s-1.5,7.9-2.4,11.8c-0.6,1.8-1.2,3.5-1.9,5.2
	c-0.2,0.5-0.2,1-0.1,1.4c1.4,2.4,3,4.8,4.4,7.2c2.5,4.4,4.8,8.9,7.2,13.3c2.7,4.9,5.5,9.7,8.3,14.5c2.4,4.1,4.8,8.3,7.2,12.4
	s4.8,8,7.1,12c1.2,2.1,2.3,4.2,3.3,6.3c1.8,4,4.6,7.5,7.1,11s5,7.5,5.7,11.9c0.3,2.8,0.3,5.6,0,8.4c-0.1,1.2-1.2,2.1-2.4,2.7
	c-3.4,1.7-6.7,1.2-9.7-0.7c-2.6-1.7-5-3.6-7.3-5.8c-1.8-1.9-3.5-3.9-5-6c-0.2-0.3-0.4-0.5-0.6-0.7c-3.4-3-5.6-6.9-7.7-10.8
	c-1.5-2.8-3-5.6-4.4-8.4s-2.6-5.6-4-8.4c-2.1-4.2-4.4-8.3-6.5-12.5c-1.4-2.8-2.4-5.7-3.7-8.5c-1.8-3.9-3.7-7.9-5.5-11.8
	c-0.1-0.2-0.2-0.4-0.3-0.6V107z"/>
<path class="st0" d="M663.6,205l-1.4,0.1c0,0.3,0,0.6,0,0.9c0.1,2.1-1.1,4.1-3,5c-0.5,0.2-0.9,0.6-1.3,1c-1,1.5-2.7,2.4-4.5,2.4
	c-1.9,0.2-3.8,0.1-5.8-0.1c-1.7-0.3-3.4-0.9-5-1.7c-1.8-0.8-3.4-1.9-5.1-2.8c-0.5-0.2-1-0.3-1.5-0.3c-4-0.2-5.7-2.2-5.8-6.1
	c-0.1-3.2-0.6-6.4-1-9.6c-0.2-2.3-0.5-4.5-0.7-6.8c-0.2-1.4-0.4-2.7-0.5-4.1c0-0.9,0.2-1.8,0.2-2.7c-0.1-1.6-0.3-3.1-0.5-4.7
	c-0.2-1.4-0.4-2.7-0.5-4.1c-0.1-2.5-0.2-4.9-0.2-7.4c-0.1-3.5-1.1-6.8-1.9-10.1c-0.6-2.4-0.8-4.8-1.2-7.2c-0.7-4.4-1-8.8-2.5-13
	c-0.5-1.4-0.8-2.9-0.8-4.4c0.2-4.1-1.3-7.9-2.2-11.9c-0.3-1.4-0.5-2.9-0.7-4.3c-0.3-1.6-0.6-3.1-1-4.7c-0.6-2.6-1.5-5.2-1.6-7.9
	c-0.2-4.7-1.8-9-3-13.4c-1.1-4.2-2-8.5-3.1-12.7c-0.6-2.3-1.3-4.6-2-6.8c-1-3.3-2.2-6.6-3.1-9.9c-0.5-1.8-0.7-3.7-1.1-5.5
	c-0.1-0.5-0.4-0.9-0.7-1.3c-1.3-1.1-2.1-2.7-2.3-4.4c-0.4-2.4-0.7-4.8-0.7-7.2c0-2.5,0.6-5.2,2.8-6.7c1.5-1,3.3-1.7,5.1-2
	c2.4-0.4,5-0.7,7.3,0.8c1.8,1.2,3.3,2.7,4.5,4.4c4.1,5.8,5.5,12.6,7.6,19.2c1.1,3.3,2.2,6.6,3.1,9.9c0.9,3.6,1.6,7.2,2.4,10.9
	c0.5,2.4,1,4.9,1.5,7.3c0.5,2.8,1,5.6,1.4,8.4c0.7,4.5,1.5,9,2.2,13.6c0.2,0.9,0.2,1.7,0.2,2.6c-0.2,4.4,0.4,8.8,1.8,13
	c0.2,0.8,0.4,1.5,0.4,2.3c0.2,1.4,0.2,2.8,0.2,4.3c0,2.6,0.3,5.3,1,7.8c0.5,2.1,0.8,4.3,0.9,6.4c0,3.7,0.4,7.3,1.2,10.9
	c0.7,2.9,1.3,5.9,2.1,8.9c0.9,3.7,2.2,7.4,2.8,11.1c1,5.4,3.1,10.3,4.8,15.4c1.1,3.4,2.5,6.7,4.1,9.9c1,1.6,2.2,3,3.6,4.2
	C661.1,203.1,662.4,204,663.6,205z"/>
<path class="st0" d="M549,39c1.6-0.4,3.2-0.8,4.7-1.2c4-0.8,8-0.8,12,0c4.1,0.8,7.9,2.6,11.2,5.2c2.1,1.7,4,3.6,5.7,5.8
	c2.2,3.1,4.3,6.3,6.1,9.6c3,5.6,4.5,11.7,6.6,17.7c2.2,6.5,4.2,13,6.3,19.5c1,3.3,2.1,6.6,2.9,10c0.5,2.1,0.8,4.2,0.9,6.3
	c0.2,3.5,0.5,7,0.5,10.4c0.1,4.7-1.8,9.3-5.2,12.6c-1.6,1.5-3.8,1.9-5.7,2.6c-3.7,1.3-6.7-0.5-9.8-2.1c-2.1-1.2-3.7-3.2-4.2-5.6
	c-1.1-3.5-2-7-2.9-10.6c-1.2-4.9-2.4-9.9-3.5-14.9c-0.4-1.7-0.3-3.6-0.8-5.2c-1.6-5.2-3.2-10.4-5-15.6c-1.4-4.2-3.2-8.3-5.1-12.3
	c-3-5.9-6.4-11.6-9.7-17.4c-1.4-2.5-2.9-5-4.4-7.5c-1.2-1.9-2.8-3.7-4-5.7c-0.7-0.9-0.5-2.3,0.5-2.9c0.2-0.2,0.5-0.3,0.8-0.4
	C547.7,36.9,548.5,37.5,549,39z"/>
<path class="st0" d="M263.3,119.9h-32.8c-0.4,3.4,2.8,7.5,6.7,8.9c6.2,2.3,12.1,0.5,15.8-4.8l9.9,3c-0.3,0.5-0.5,1-0.7,1.4
	c-3.6,6.1-9.2,9.4-16.1,10.4c-4.7,0.8-9.6,0.2-14-1.8c-8.1-3.6-12.1-10-12.7-18.7c-0.5-7.9,1.9-14.7,8.3-19.7
	c4.9-3.8,10.6-4.9,16.8-4.3s11.1,3,14.8,7.9C263.1,107.5,264,113.4,263.3,119.9z M252.6,112.9c-0.5-5.9-5.7-9.8-11.9-9.3
	c-5.6,0.5-10.5,4.9-10.2,9.3H252.6L252.6,112.9z"/>
<path class="st0" d="M140.6,94.2c13,0,22.6,9.6,22.6,22.4s-9.7,22.4-22.6,22.4s-22.8-9.6-22.8-22.4S127.5,94.2,140.6,94.2z
	 M152.4,115.6c-0.1-3-1.4-5.9-3.6-8c-3.7-3.5-8.2-4.2-12.9-2.4s-7,5.7-7.3,10.6c-0.3,5.2,1.5,9.6,6.4,12
	C142.7,131.4,152.4,127,152.4,115.6z"/>
<path class="st0" d="M4.6,126l10-2.9c1,2.8,3.2,5,6,6.1c2.6,1.1,5.4,1.3,8.1,0.6c1.1-0.3,2.1-0.9,3-1.6c1.3-1.1,1.5-3,0.4-4.3
	c-0.2-0.3-0.5-0.5-0.8-0.7c-1-0.6-2.1-1.1-3.2-1.5c-3.7-1.2-7.5-2.2-11.2-3.4c-1.9-0.6-3.6-1.4-5.3-2.4c-4.8-2.9-6.3-9.2-3.4-14
	c0.4-0.7,1-1.4,1.6-2c3.1-3.2,7.3-5.1,11.7-5.3c6-0.6,11.6,0.6,16.5,4.5c2,1.6,3.6,3.7,4.5,6.1c-3.1,0.9-6.1,1.8-9.2,2.6
	c-0.3,0.1-0.8-0.2-1-0.5c-2.4-3.4-6.6-4.9-10.6-3.9c-1.2,0.3-2.4,0.9-3.3,1.8c-1,0.9-1.1,2.5-0.2,3.6c0.2,0.2,0.4,0.4,0.7,0.5
	c0.9,0.5,2,0.9,3,1.2c4,1.2,8,2.3,12,3.5c1,0.3,2,0.7,2.9,1.1c9.2,3.9,8.3,14.6,2.9,19.4c-3.3,2.8-7.4,4.4-11.7,4.7
	c-7.5,0.6-14.2-1.3-19.6-6.8C6.7,130.5,5.4,128.3,4.6,126z"/>
<path class="st0" d="M102.4,108.1L92.1,111c-0.5-0.9-1-1.9-1.6-2.7c-4.6-6.2-14.7-5.6-18.6,1.2c-2.8,4.5-2.7,10.3,0.3,14.6
	c3.5,5.3,10.6,6.7,15.9,3.2c0.4-0.2,0.7-0.5,1-0.8c1.2-1.2,2.3-2.6,3.2-4l10,2.8c-0.3,0.9-0.6,1.7-1,2.5c-1.9,4.1-5.3,7.3-9.5,9.1
	c-6.5,3.1-14,3.1-20.4,0C63,132.9,58,124,59,114.7c1-10.5,7.9-18.3,18.3-20c8.8-1.4,16.4,0.9,22.1,8.1c0.7,0.9,1.3,1.8,1.8,2.8
	C101.7,106.3,102,107.1,102.4,108.1z"/>
<path class="st0" d="M193,137.8h-11V95.5h11v5.7c1.5-2.3,3.6-4.1,6-5.4c2.5-1.1,5.3-1.5,8-1.1v10.4c-0.3,0-0.6,0-0.9,0
	c-7.6-1-12.3,2.6-12.9,10.3c-0.4,4.6-0.2,9.2-0.3,13.9C192.9,132.1,193,134.9,193,137.8z"/>
<path class="st0" d="M553.2,29c-4.4,0-8.1-0.9-11.2-3.2c-2.6-2-4.6-4.5-4.8-8.1c-0.2-1.8-0.1-3.5,0.1-5.3c0.2-1.6,1-3.1,2.4-4.1
	c3.5-2.5,7.6-3.8,11.8-4c0.4,0,0.7,0,1.1,0.1c2.6,1,5.6,1.3,7.8,3.2c1.2,0.9,2.2,2.2,2.8,3.6c1,3.7,1.7,7.5,0.3,11.3
	c-1.3,3.6-4,5.5-7.6,6.3C555.1,28.9,554.1,29,553.2,29z"/>
</svg>
